<?xml version="1.0" encoding="UTF-8"?>
<svg id="Layer_1" data-name="Layer 1" xmlns="http://www.w3.org/2000/svg" viewBox="0 0 244.8 244.8">
  <defs>
    <style>
      .cls-1, .cls-2 {
        fill: #fdca73;
      }

      .cls-2 {
        stroke: #231f20;
        stroke-miterlimit: 10;
        stroke-width: .5px;
      }

      .cls-3 {
        fill: #3d271c;
      }
    </style>
  </defs>
  <g>
    <path class="cls-3" d="M121.31,112.3c24.45-1.78,41.83,15.9,55.03,34.1,9.82,13.55,33.24,47.68,13.4,61.18-17.85,12.14-38.4-7.65-57.46-8.87-18.96-1.21-32.66,9.88-50.06,12.11-15.74,2.02-29.26-9.03-26.47-25.42,5.45-32.01,30.3-70.53,65.57-73.1Z"/>
    <path class="cls-3" d="M157.74,5.04c12.78-1.54,23.1,10.55,25.63,22.06,4.2,19.16-2.25,43.78-20.31,53.69-19.16,10.51-33.97-8.91-35.25-26.7-1.31-18.29,9.05-46.53,29.93-49.05Z"/>
    <path class="cls-3" d="M106.25,77.75c-13.29,13.18-30.17,3.1-38.75-9.77-9.42-14.14-12.82-38.54-2.15-52.79,13.41-17.89,33.58-7.29,42.74,8.59,8.64,14.96,11.42,40.82-1.84,53.97Z"/>
    <g>
      <path class="cls-3" d="M15.27,101.47c-.2-2.31-.2-6.28,0-8.58,1.68-19.16,18.36-27.29,34.62-16.95,14.18,9.01,22.52,26.11,21.48,42.89-.88,14.27-10.86,25.98-26.01,21.71-16.43-4.64-28.68-22.38-30.09-39.06Z"/>
      <path class="cls-3" d="M208.83,66.89c6-.07,12.01,4.01,15.38,8.72,13.96,19.53-.61,55.86-23.6,61.71-7.21,1.84-13.07,1.03-18.69-4.02-20.85-18.76-.75-66.08,26.9-66.41Z"/>
    </g>
    <path class="cls-1" d="M18.69,91.26l25.67-14.82c2.91-.61,5.83,1.63,8.76,6.71l7.41,12.83c2.93,5.08,3.41,8.73,1.43,10.94l-14.9,8.6,6.35,11c.72,1.52.64,2.69-.26,3.51l-11,6.35c-1.16.37-2.22-.14-3.17-1.53l-18.86-32.66c-2.93-5.08-3.41-8.73-1.43-10.94ZM36.67,97.53l4.23,7.33,2.98-1.72c.8-.56.86-1.42.2-2.56l-3.18-5.5-4.24,2.45Z"/>
    <path class="cls-1" d="M62.59,27.34c-.31-1.67.08-2.78,1.17-3.35l32.32-8.66c1.67-.31,2.78.08,3.35,1.17l2.73,10.17c.05,1.23-.72,2.12-2.32,2.69l-18.09,4.85,1.24,4.64,15.39-4.12c1.67-.31,2.78.08,3.35,1.17l2.21,8.24c.05,1.23-.72,2.12-2.32,2.69l-15.39,4.12,1.24,4.64,18.09-4.85c1.67-.31,2.78.08,3.35,1.17l2.73,10.17c.05,1.23-.72,2.12-2.32,2.69l-32.32,8.66c-1.23.05-2.12-.72-2.69-2.32l-11.73-43.78Z"/>
    <path class="cls-1" d="M180.82,24.4c1.77.63,2.62,1.62,2.56,2.98l-3.02,11.26c-.63,1.21-1.86,1.64-3.71,1.3l-8.27-2.22-9.66,36.06c-.63,1.77-1.62,2.62-2.98,2.56l-13.68-3.67c-1.21-.63-1.64-1.86-1.3-3.71l9.66-36.06-8.55-2.29c-1.77-.63-2.62-1.62-2.56-2.98l3.02-11.26c.63-1.21,1.86-1.64,3.71-1.3l34.78,9.32Z"/>
    <path class="cls-1" d="M191.36,83.7l2.01-3.48c2.87-4.97,5.73-7.16,8.58-6.56l25.13,14.51c1.94,2.17,1.47,5.74-1.4,10.71l-3.04,5.27c-.93,1.36-1.97,1.85-3.11,1.5l-10.77-6.22c-.88-.81-.97-1.95-.26-3.44l1.04-1.79-4.04-2.33-1.04,1.79c-.54.93-.67,1.68-.4,2.24l11.54,15.63c.48,1.92-.45,5.15-2.81,9.67l-2.01,3.48c-2.87,4.97-5.73,7.16-8.58,6.56l-25.13-14.51c-1.94-2.17-1.47-5.74,1.4-10.71l3.04-5.27c.93-1.36,1.97-1.85,3.11-1.5l10.77,6.22c.88.81.97,1.95.26,3.44l-1.04,1.79,4.04,2.33,1.04-1.79c.54-.93.67-1.68.4-2.24l-11.54-15.63c-.48-1.92.45-5.15,2.81-9.67Z"/>
  </g>
  <path class="cls-2" d="M9.92,225.14c.4,0,.6.2.6.6v2.22c0,.38-.2.59-.6.59h-4.8c-.38,0-.6.2-.6.59v.63c0,.38.22.6.6.6h3.07c.4,0,.6.2.6.59v2.22c0,.38-.2.59-.6.59h-3.07c-.38,0-.6.2-.6.6v.63c0,.38.22.59.6.59h4.8c.4,0,.6.2.6.6v2.22c0,.4-.2.59-.6.59H1.59c-.38,0-.6-.22-.6-.59v-12.7c0-.4.22-.6.6-.6h8.33Z"/>
  <path class="cls-2" d="M14.28,225.14c.36,0,.58.18.65.52l1.75,7.62c.04.18.2.18.24,0l1.75-7.62c.08-.34.3-.52.65-.52h2.36c.42,0,.61.24.52.66l-2.9,12.71c-.08.34-.3.52-.65.52h-3.69c-.36,0-.58-.18-.65-.52l-2.9-12.71c-.1-.42.1-.66.52-.66h2.36Z"/>
  <path class="cls-2" d="M32.48,225.14c.4,0,.6.2.6.6v2.22c0,.38-.2.59-.6.59h-4.8c-.38,0-.6.2-.6.59v.63c0,.38.22.6.6.6h3.07c.4,0,.6.2.6.59v2.22c0,.38-.2.59-.6.59h-3.07c-.38,0-.6.2-.6.6v.63c0,.38.22.59.6.59h4.8c.4,0,.6.2.6.6v2.22c0,.4-.2.59-.6.59h-8.33c-.38,0-.6-.22-.6-.59v-12.7c0-.4.22-.6.6-.6h8.33Z"/>
  <path class="cls-2" d="M45.05,237.96c.28.52-.04,1.07-.65,1.07h-2.26c-.2,0-.38-.1-.46-.28l-2.06-3.99c-.04-.06-.1-.1-.16-.1h-.79c-.36,0-.61.26-.61.62v3.13c0,.36-.26.62-.61.62h-2.22c-.36,0-.62-.26-.62-.62v-12.66c0-.36.26-.62.62-.62h4.34c3.53,0,4.96,1.51,4.96,4.76,0,1.84-.46,3.13-1.51,3.89-.08.06-.1.16-.06.26l2.1,3.91ZM38.67,228.55c-.36,0-.61.26-.61.62v1.47c0,.36.26.61.61.61h1.01c.95,0,1.43-.12,1.43-1.35s-.48-1.35-1.43-1.35h-1.01Z"/>
  <path class="cls-2" d="M48.07,225.14c.34,0,.56.14.67.46l1.47,3.69c.08.18.2.18.28,0l1.47-3.69c.12-.32.34-.46.67-.46h2.84c.46,0,.65.28.46.69l-3.55,7.93c-.04.08-.04.16-.04.24v4.42c0,.38-.2.59-.6.59h-2.78c-.38,0-.59-.22-.59-.59v-4.42c0-.08,0-.16-.04-.24l-3.57-7.93c-.2-.42,0-.69.46-.69h2.86Z"/>
  <path class="cls-2" d="M66.46,234.56c0,1.31-.28,4.82-4.98,4.82s-4.98-3.51-4.98-4.82v-4.96c0-1.31.28-4.82,4.98-4.82s4.98,3.51,4.98,4.82v4.96ZM63.05,230.66c0-1.53-.1-2.46-1.57-2.46s-1.57.93-1.57,2.46v2.86c0,1.53.1,2.46,1.57,2.46s1.57-.93,1.57-2.46v-2.86Z"/>
  <path class="cls-2" d="M71.76,225.14c.34,0,.56.14.69.46l2.7,6.61c.08.18.24.14.24-.06v-6.41c0-.4.22-.6.6-.6h2.22c.4,0,.6.2.6.6v12.7c0,.38-.2.59-.6.59h-2.92c-.34,0-.56-.14-.69-.46l-2.7-6.61c-.08-.18-.24-.14-.24.06v6.41c0,.38-.2.59-.6.59h-2.22c-.38,0-.6-.22-.6-.59v-12.7c0-.4.22-.6.6-.6h2.92Z"/>
  <path class="cls-2" d="M89.71,225.14c.4,0,.6.2.6.6v2.22c0,.38-.2.59-.6.59h-4.8c-.38,0-.6.2-.6.59v.63c0,.38.22.6.6.6h3.07c.4,0,.6.2.6.59v2.22c0,.38-.2.59-.6.59h-3.07c-.38,0-.6.2-.6.6v.63c0,.38.22.59.6.59h4.8c.4,0,.6.2.6.6v2.22c0,.4-.2.59-.6.59h-8.33c-.38,0-.6-.22-.6-.59v-12.7c0-.4.22-.6.6-.6h8.33Z"/>
  <path class="cls-2" d="M93.86,224.15c.4,0,.63.2.6.59l-.4,3.21c-.06.38-.2.59-.59.59h-1.03c-.38,0-.54-.22-.6-.59l-.4-3.21c-.04-.4.22-.59.59-.59h1.83Z"/>
  <path class="cls-2" d="M102.97,230.06c-.4.08-.59-.1-.65-.5-.14-.81-.79-1.33-1.73-1.33-.77,0-1.25.46-1.17.91.28,1.55,6.55,1.51,6.55,6.07,0,.59-.67,4.11-5.38,4.11-4.17,0-5.06-2.74-5.16-4.29-.02-.36.16-.58.52-.65l2.24-.5c.4-.08.61.1.65.52.08.95.81,1.51,1.75,1.51s1.69-.58,1.57-1.11c-.38-1.69-6.35-1.31-6.35-5.87-.02-.59.34-4.11,4.78-4.11,4.09,0,5.04,2.66,5.16,4.09.02.36-.16.58-.52.65l-2.26.5Z"/>
  <path class="cls-2" d="M118.1,225.14c3.73,0,5.16,1.51,5.16,4.76,0,.67-.2,1.98-1.01,2.88.81.38,1.41,1.37,1.41,2.6,0,2.46-1.09,3.65-4.82,3.65h-4.9c-.38,0-.6-.22-.6-.59v-12.68c0-.4.2-.59.6-.62h4.17ZM118.58,236.21c.95,0,1.43-.1,1.43-1.03s-.44-1.07-1.39-1.07h-1.29c-.38,0-.6.2-.6.59v.91c0,.4.22.6.6.6h1.25ZM118.42,231.25c.95,0,1.43-.12,1.43-1.35s-.48-1.35-1.43-1.35h-1.07c-.38,0-.59.2-.59.59v1.51c0,.4.22.59.59.59h1.07Z"/>
  <path class="cls-2" d="M133.9,225.14c.4,0,.6.2.6.6v2.22c0,.38-.2.59-.6.59h-4.8c-.38,0-.6.2-.6.59v.63c0,.38.22.6.6.6h3.07c.4,0,.59.2.59.59v2.22c0,.38-.2.59-.59.59h-3.07c-.38,0-.6.2-.6.6v.63c0,.38.22.59.6.59h4.8c.4,0,.6.2.6.6v2.22c0,.4-.2.59-.6.59h-8.33c-.38,0-.59-.22-.59-.59v-12.7c0-.4.22-.6.59-.6h8.33Z"/>
  <path class="cls-2" d="M142.55,230.06c-.4.08-.6-.1-.66-.5-.14-.81-.79-1.33-1.73-1.33-.77,0-1.25.46-1.17.91.28,1.55,6.55,1.51,6.55,6.07,0,.59-.67,4.11-5.38,4.11-4.17,0-5.06-2.74-5.16-4.29-.02-.36.16-.58.52-.65l2.24-.5c.4-.08.62.1.66.52.08.95.81,1.51,1.75,1.51s1.69-.58,1.57-1.11c-.38-1.69-6.35-1.31-6.35-5.87-.02-.59.34-4.11,4.78-4.11,4.09,0,5.04,2.66,5.16,4.09.02.36-.16.58-.52.65l-2.26.5Z"/>
  <path class="cls-2" d="M149.95,229.15c0-.4-.2-.59-.6-.59h-2.78c-.38,0-.59-.22-.59-.59v-2.22c0-.4.22-.6.59-.6h10.16c.4,0,.6.2.6.6v2.22c0,.38-.2.59-.6.59h-2.78c-.38,0-.6.2-.6.59v9.28c0,.38-.2.59-.59.59h-2.22c-.38,0-.59-.22-.59-.59v-9.28Z"/>
  <path class="cls-2" d="M173.6,225.14c.4,0,.6.2.6.6v2.22c0,.38-.2.59-.6.59h-5c-.38,0-.6.2-.6.59v.63c0,.38.22.6.6.6h3.27c.4,0,.6.2.6.59v2.22c0,.38-.2.59-.6.59h-3.27c-.38,0-.6.2-.6.6v4.05c0,.38-.2.59-.59.59h-2.34c-.38,0-.59-.22-.59-.59v-12.7c0-.4.22-.6.59-.6h8.53Z"/>
  <path class="cls-2" d="M185.84,237.96c.28.52-.04,1.07-.65,1.07h-2.26c-.2,0-.38-.1-.46-.28l-2.06-3.99c-.04-.06-.1-.1-.16-.1h-.79c-.36,0-.62.26-.62.62v3.13c0,.36-.26.62-.62.62h-2.22c-.36,0-.61-.26-.61-.62v-12.66c0-.36.26-.62.61-.62h4.34c3.53,0,4.96,1.51,4.96,4.76,0,1.84-.46,3.13-1.51,3.89-.08.06-.1.16-.06.26l2.1,3.91ZM179.45,228.55c-.36,0-.62.26-.62.62v1.47c0,.36.26.61.62.61h1.01c.95,0,1.43-.12,1.43-1.35s-.48-1.35-1.43-1.35h-1.01Z"/>
  <path class="cls-2" d="M189.92,225.14c.4,0,.6.2.6.6v12.7c0,.38-.2.59-.6.59h-2.18c-.38,0-.59-.22-.59-.59v-12.7c0-.4.22-.6.59-.6h2.18Z"/>
  <path class="cls-2" d="M201.43,225.14c.4,0,.6.2.6.6v2.22c0,.38-.2.59-.6.59h-4.8c-.38,0-.6.2-.6.59v.63c0,.38.22.6.6.6h3.07c.4,0,.59.2.59.59v2.22c0,.38-.2.59-.59.59h-3.07c-.38,0-.6.2-.6.6v.63c0,.38.22.59.6.59h4.8c.4,0,.6.2.6.6v2.22c0,.4-.2.59-.6.59h-8.33c-.38,0-.59-.22-.59-.59v-12.7c0-.4.22-.6.59-.6h8.33Z"/>
  <path class="cls-2" d="M207.06,225.14c.34,0,.56.14.69.46l2.7,6.61c.08.18.24.14.24-.06v-6.41c0-.4.22-.6.59-.6h2.22c.4,0,.59.2.59.6v12.7c0,.38-.2.59-.59.59h-2.92c-.34,0-.56-.14-.69-.46l-2.7-6.61c-.08-.18-.24-.14-.24.06v6.41c0,.38-.2.59-.59.59h-2.22c-.38,0-.59-.22-.59-.59v-12.7c0-.4.22-.6.59-.6h2.92Z"/>
  <path class="cls-2" d="M221.11,225.14c3.73,0,4.96,1.51,4.96,4.76v4.34c0,3.25-1.23,4.78-4.96,4.78h-4.42c-.38,0-.59-.22-.59-.59v-12.68c0-.4.2-.59.59-.62h4.42ZM221.17,235.61c.95,0,1.43-.16,1.43-1.35v-4.36c0-1.23-.48-1.35-1.43-1.35h-1.07c-.38,0-.6.2-.6.59v5.87c0,.38.22.59.6.59h1.07Z"/>
  <path class="cls-2" d="M234.78,230.06c-.4.08-.6-.1-.66-.5-.14-.81-.79-1.33-1.73-1.33-.77,0-1.25.46-1.17.91.28,1.55,6.55,1.51,6.55,6.07,0,.59-.67,4.11-5.38,4.11-4.17,0-5.06-2.74-5.16-4.29-.02-.36.16-.58.52-.65l2.24-.5c.4-.08.62.1.66.52.08.95.81,1.51,1.75,1.51s1.69-.58,1.57-1.11c-.38-1.69-6.35-1.31-6.35-5.87-.02-.59.34-4.11,4.78-4.11,4.09,0,5.04,2.66,5.16,4.09.02.36-.16.58-.52.65l-2.26.5Z"/>
  <path class="cls-2" d="M243.01,225.14c.4,0,.61.2.59.6l-.4,8.33c-.02.38-.2.59-.6.59h-2.22c-.38,0-.58-.22-.59-.59l-.4-8.33c-.02-.4.22-.6.59-.6h3.02ZM242.62,235.61c.4,0,.6.2.6.6v2.22c0,.38-.2.59-.6.59h-2.22c-.38,0-.59-.22-.59-.59v-2.22c0-.4.22-.6.59-.6h2.22Z"/>
</svg>