<?xml version="1.0" encoding="UTF-8"?>
<svg id="Layer_1" data-name="Layer 1" xmlns="http://www.w3.org/2000/svg" viewBox="0 0 244.8 244.8">
  <defs>
    <style>
      .cls-1, .cls-2 {
        fill: #fdca73;
      }

      .cls-2 {
        font-family: Cubano-Regular, Cubano;
        font-size: 17.59px;
        stroke: #231f20;
        stroke-miterlimit: 10;
        stroke-width: .75px;
      }

      .cls-3 {
        letter-spacing: 0em;
      }

      .cls-4 {
        letter-spacing: 0em;
      }

      .cls-5 {
        letter-spacing: -.05em;
      }

      .cls-6 {
        letter-spacing: 0em;
      }

      .cls-7 {
        letter-spacing: -.03em;
      }

      .cls-8 {
        letter-spacing: -.02em;
      }

      .cls-9 {
        fill: #3d271c;
      }
    </style>
  </defs>
  <g>
    <path class="cls-9" d="M121.31,112.3c24.45-1.78,41.83,15.9,55.03,34.1,9.82,13.55,33.24,47.68,13.4,61.18-17.85,12.14-38.4-7.65-57.46-8.87-18.96-1.21-32.66,9.88-50.06,12.11-15.74,2.02-29.26-9.03-26.47-25.42,5.45-32.01,30.3-70.53,65.57-73.1Z"/>
    <path class="cls-9" d="M157.74,5.04c12.78-1.54,23.1,10.55,25.63,22.06,4.2,19.16-2.25,43.78-20.31,53.69-19.16,10.51-33.97-8.91-35.25-26.7-1.31-18.29,9.05-46.53,29.93-49.05Z"/>
    <path class="cls-9" d="M106.25,77.75c-13.29,13.18-30.17,3.1-38.75-9.77-9.42-14.14-12.82-38.54-2.15-52.79,13.41-17.89,33.58-7.29,42.74,8.59,8.64,14.96,11.42,40.82-1.84,53.97Z"/>
    <g>
      <path class="cls-9" d="M15.27,101.47c-.2-2.31-.2-6.28,0-8.58,1.68-19.16,18.36-27.29,34.62-16.95,14.18,9.01,22.52,26.11,21.48,42.89-.88,14.27-10.86,25.98-26.01,21.71-16.43-4.64-28.68-22.38-30.09-39.06Z"/>
      <path class="cls-9" d="M208.83,66.89c6-.07,12.01,4.01,15.38,8.72,13.96,19.53-.61,55.86-23.6,61.71-7.21,1.84-13.07,1.03-18.69-4.02-20.85-18.76-.75-66.08,26.9-66.41Z"/>
    </g>
    <path class="cls-1" d="M18.69,91.26l25.67-14.82c2.91-.61,5.83,1.63,8.76,6.71l7.41,12.83c2.93,5.08,3.41,8.73,1.43,10.94l-14.9,8.6,6.35,11c.72,1.52.64,2.69-.26,3.51l-11,6.35c-1.16.37-2.22-.14-3.17-1.53l-18.86-32.66c-2.93-5.08-3.41-8.73-1.43-10.94ZM36.67,97.53l4.23,7.33,2.98-1.72c.8-.56.86-1.42.2-2.56l-3.18-5.5-4.24,2.45Z"/>
    <path class="cls-1" d="M62.59,27.34c-.31-1.67.08-2.78,1.17-3.35l32.32-8.66c1.67-.31,2.78.08,3.35,1.17l2.73,10.17c.05,1.23-.72,2.12-2.32,2.69l-18.09,4.85,1.24,4.64,15.39-4.12c1.67-.31,2.78.08,3.35,1.17l2.21,8.24c.05,1.23-.72,2.12-2.32,2.69l-15.39,4.12,1.24,4.64,18.09-4.85c1.67-.31,2.78.08,3.35,1.17l2.73,10.17c.05,1.23-.72,2.12-2.32,2.69l-32.32,8.66c-1.23.05-2.12-.72-2.69-2.32l-11.73-43.78Z"/>
    <path class="cls-1" d="M180.82,24.4c1.77.63,2.62,1.62,2.56,2.98l-3.02,11.26c-.63,1.21-1.86,1.64-3.71,1.3l-8.27-2.22-9.66,36.06c-.63,1.77-1.62,2.62-2.98,2.56l-13.68-3.67c-1.21-.63-1.64-1.86-1.3-3.71l9.66-36.06-8.55-2.29c-1.77-.63-2.62-1.62-2.56-2.98l3.02-11.26c.63-1.21,1.86-1.64,3.71-1.3l34.78,9.32Z"/>
    <path class="cls-1" d="M191.36,83.7l2.01-3.48c2.87-4.97,5.73-7.16,8.58-6.56l25.13,14.51c1.94,2.17,1.47,5.74-1.4,10.71l-3.04,5.27c-.93,1.36-1.97,1.85-3.11,1.5l-10.77-6.22c-.88-.81-.97-1.95-.26-3.44l1.04-1.79-4.04-2.33-1.04,1.79c-.54.93-.67,1.68-.4,2.24l11.54,15.63c.48,1.92-.45,5.15-2.81,9.67l-2.01,3.48c-2.87,4.97-5.73,7.16-8.58,6.56l-25.13-14.51c-1.94-2.17-1.47-5.74,1.4-10.71l3.04-5.27c.93-1.36,1.97-1.85,3.11-1.5l10.77,6.22c.88.81.97,1.95.26,3.44l-1.04,1.79,4.04,2.33,1.04-1.79c.54-.93.67-1.68.4-2.24l-11.54-15.63c-.48-1.92.45-5.15,2.81-9.67Z"/>
  </g>
  <text class="cls-2" transform="translate(13.9 236.37)"><tspan x="0" y="0">Eve</tspan><tspan class="cls-5" x="29.79" y="0">r</tspan><tspan class="cls-7" x="39.34" y="0">y</tspan><tspan class="cls-3" x="49.39" y="0">one&apos;s b</tspan><tspan class="cls-8" x="109.9" y="0">e</tspan><tspan class="cls-6" x="119.35" y="0">s</tspan><tspan class="cls-4" x="129.23" y="0">t friends!</tspan></text>
</svg>