<?xml version="1.0" encoding="UTF-8"?>
<svg id="Layer_1" data-name="Layer 1" xmlns="http://www.w3.org/2000/svg" viewBox="0 0 244.8 244.8">
  <defs>
    <style>
      .cls-1, .cls-2 {
        fill: #fdca73;
      }

      .cls-2 {
        stroke: #231f20;
        stroke-miterlimit: 10;
        stroke-width: .75px;
      }

      .cls-3 {
        fill: #3d271c;
      }
    </style>
  </defs>
  <g>
    <path class="cls-3" d="M121.31,112.3c24.45-1.78,41.83,15.9,55.03,34.1,9.82,13.55,33.24,47.68,13.4,61.18-17.85,12.14-38.4-7.65-57.46-8.87-18.96-1.21-32.66,9.88-50.06,12.11-15.74,2.02-29.26-9.03-26.47-25.42,5.45-32.01,30.3-70.53,65.57-73.1Z"/>
    <path class="cls-3" d="M157.74,5.04c12.78-1.54,23.1,10.55,25.63,22.06,4.2,19.16-2.25,43.78-20.31,53.69-19.16,10.51-33.97-8.91-35.25-26.7-1.31-18.29,9.05-46.53,29.93-49.05Z"/>
    <path class="cls-3" d="M106.25,77.75c-13.29,13.18-30.17,3.1-38.75-9.77-9.42-14.14-12.82-38.54-2.15-52.79,13.41-17.89,33.58-7.29,42.74,8.59,8.64,14.96,11.42,40.82-1.84,53.97Z"/>
    <g>
      <path class="cls-3" d="M15.27,101.47c-.2-2.31-.2-6.28,0-8.58,1.68-19.16,18.36-27.29,34.62-16.95,14.18,9.01,22.52,26.11,21.48,42.89-.88,14.27-10.86,25.98-26.01,21.71-16.43-4.64-28.68-22.38-30.09-39.06Z"/>
      <path class="cls-3" d="M208.83,66.89c6-.07,12.01,4.01,15.38,8.72,13.96,19.53-.61,55.86-23.6,61.71-7.21,1.84-13.07,1.03-18.69-4.02-20.85-18.76-.75-66.08,26.9-66.41Z"/>
    </g>
    <path class="cls-1" d="M18.69,91.26l25.67-14.82c2.91-.61,5.83,1.63,8.76,6.71l7.41,12.83c2.93,5.08,3.41,8.73,1.43,10.94l-14.9,8.6,6.35,11c.72,1.52.64,2.69-.26,3.51l-11,6.35c-1.16.37-2.22-.14-3.17-1.53l-18.86-32.66c-2.93-5.08-3.41-8.73-1.43-10.94ZM36.67,97.53l4.23,7.33,2.98-1.72c.8-.56.86-1.42.2-2.56l-3.18-5.5-4.24,2.45Z"/>
    <path class="cls-1" d="M62.59,27.34c-.31-1.67.08-2.78,1.17-3.35l32.32-8.66c1.67-.31,2.78.08,3.35,1.17l2.73,10.17c.05,1.23-.72,2.12-2.32,2.69l-18.09,4.85,1.24,4.64,15.39-4.12c1.67-.31,2.78.08,3.35,1.17l2.21,8.24c.05,1.23-.72,2.12-2.32,2.69l-15.39,4.12,1.24,4.64,18.09-4.85c1.67-.31,2.78.08,3.35,1.17l2.73,10.17c.05,1.23-.72,2.12-2.32,2.69l-32.32,8.66c-1.23.05-2.12-.72-2.69-2.32l-11.73-43.78Z"/>
    <path class="cls-1" d="M180.82,24.4c1.77.63,2.62,1.62,2.56,2.98l-3.02,11.26c-.63,1.21-1.86,1.64-3.71,1.3l-8.27-2.22-9.66,36.06c-.63,1.77-1.62,2.62-2.98,2.56l-13.68-3.67c-1.21-.63-1.64-1.86-1.3-3.71l9.66-36.06-8.55-2.29c-1.77-.63-2.62-1.62-2.56-2.98l3.02-11.26c.63-1.21,1.86-1.64,3.71-1.3l34.78,9.32Z"/>
    <path class="cls-1" d="M191.36,83.7l2.01-3.48c2.87-4.97,5.73-7.16,8.58-6.56l25.13,14.51c1.94,2.17,1.47,5.74-1.4,10.71l-3.04,5.27c-.93,1.36-1.97,1.85-3.11,1.5l-10.77-6.22c-.88-.81-.97-1.95-.26-3.44l1.04-1.79-4.04-2.33-1.04,1.79c-.54.93-.67,1.68-.4,2.24l11.54,15.63c.48,1.92-.45,5.15-2.81,9.67l-2.01,3.48c-2.87,4.97-5.73,7.16-8.58,6.56l-25.13-14.51c-1.94-2.17-1.47-5.74,1.4-10.71l3.04-5.27c.93-1.36,1.97-1.85,3.11-1.5l10.77,6.22c.88.81.97,1.95.26,3.44l-1.04,1.79,4.04,2.33,1.04-1.79c.54-.93.67-1.68.4-2.24l-11.54-15.63c-.48-1.92.45-5.15,2.81-9.67Z"/>
  </g>
  <path class="cls-2" d="M7.83,222.35c.49,0,.76.27.87.74l1.94,7.93c.05.27.27.27.33,0l1.94-7.93c.11-.46.38-.74.87-.74h5.64c.55,0,.82.27.82.82v17.45c0,.52-.27.82-.82.82h-3.05c-.52,0-.82-.3-.82-.82v-10.74c0-.19-.25-.22-.3-.03l-2.65,10.88c-.11.46-.41.71-.9.71h-1.8c-.49,0-.79-.25-.9-.71l-2.64-10.88c-.05-.19-.3-.16-.3.03v10.74c0,.52-.27.82-.82.82h-3.05c-.54,0-.82-.3-.82-.82v-17.45c0-.54.27-.82.82-.82h5.64Z"/>
  <path class="cls-2" d="M36.18,240.51c0,.6-.27.93-.82.93h-3.05c-.52,0-.82-.27-.82-.82v-2.37c0-.54-.27-.82-.82-.82h-2.35c-.52,0-.82.27-.82.82v2.37c0,.55-.27.82-.82.82h-3.05c-.52,0-.82-.33-.82-.93v-11.56c0-3.44.55-7.09,6.68-7.09s6.68,3.65,6.68,7.09v11.56ZM31.49,228.95c0-1.31-.19-1.96-1.99-1.96s-1.99.66-1.99,1.96v2.97c0,.52.3.82.82.82h2.35c.55-.03.82-.3.82-.85v-2.94Z"/>
  <path class="cls-2" d="M43.59,222.35c.46,0,.76.19.95.63l3.71,9.08c.11.25.33.19.33-.08v-8.81c0-.54.3-.82.82-.82h3.05c.55,0,.82.27.82.82v17.45c0,.52-.27.82-.82.82h-4.01c-.46,0-.76-.19-.95-.63l-3.71-9.08c-.11-.25-.33-.19-.33.08v8.81c0,.52-.27.82-.82.82h-3.05c-.52,0-.82-.3-.82-.82v-17.45c0-.54.3-.82.82-.82h4.01Z"/>
  <path class="cls-2" d="M65.51,229.11c-.55.11-.82-.14-.9-.68-.19-1.12-1.09-1.83-2.37-1.83-1.06,0-1.72.63-1.61,1.25.38,2.13,9,2.07,9,8.34,0,.82-.93,5.64-7.39,5.64-5.73,0-6.95-3.76-7.09-5.89-.03-.49.22-.79.71-.9l3.08-.68c.55-.11.85.14.9.71.11,1.31,1.12,2.07,2.4,2.07s2.32-.79,2.15-1.53c-.52-2.32-8.73-1.8-8.73-8.07-.03-.82.46-5.64,6.57-5.64,5.62,0,6.93,3.65,7.09,5.62.03.49-.22.79-.71.9l-3.11.68Z"/>
  <path class="cls-2" d="M86.31,222.35c5.13,0,7.09,2.07,7.09,6.54,0,.93-.27,2.73-1.39,3.95,1.12.52,1.94,1.88,1.94,3.57,0,3.38-1.5,5.02-6.63,5.02h-6.74c-.52,0-.82-.3-.82-.82v-17.42c0-.54.27-.82.82-.84h5.73ZM86.96,237.57c1.31,0,1.96-.14,1.96-1.42s-.6-1.47-1.91-1.47h-1.77c-.52,0-.82.27-.82.82v1.25c0,.55.3.82.82.82h1.72ZM86.75,230.75c1.31,0,1.96-.16,1.96-1.85s-.65-1.85-1.96-1.85h-1.47c-.52,0-.82.27-.82.82v2.07c0,.54.3.82.82.82h1.47Z"/>
  <path class="cls-2" d="M108.01,222.35c.55,0,.82.27.82.82v3.05c0,.52-.27.82-.82.82h-6.6c-.52,0-.82.27-.82.82v.87c0,.52.3.82.82.82h4.23c.55,0,.82.27.82.82v3.05c0,.52-.27.82-.82.82h-4.23c-.52,0-.82.27-.82.82v.87c0,.52.3.82.82.82h6.6c.55,0,.82.27.82.82v3.05c0,.55-.27.82-.82.82h-11.45c-.52,0-.82-.3-.82-.82v-17.45c0-.54.3-.82.82-.82h11.45Z"/>
  <path class="cls-2" d="M119.89,229.11c-.54.11-.82-.14-.9-.68-.19-1.12-1.09-1.83-2.37-1.83-1.06,0-1.72.63-1.61,1.25.38,2.13,9,2.07,9,8.34,0,.82-.93,5.64-7.39,5.64-5.73,0-6.95-3.76-7.09-5.89-.03-.49.22-.79.71-.9l3.08-.68c.55-.11.85.14.9.71.11,1.31,1.12,2.07,2.4,2.07s2.32-.79,2.15-1.53c-.52-2.32-8.73-1.8-8.73-8.07-.03-.82.46-5.64,6.57-5.64,5.62,0,6.93,3.65,7.09,5.62.03.49-.22.79-.71.9l-3.11.68Z"/>
  <path class="cls-2" d="M130.06,227.86c0-.55-.27-.82-.82-.82h-3.82c-.52,0-.82-.3-.82-.82v-3.05c0-.54.3-.82.82-.82h13.96c.54,0,.82.27.82.82v3.05c0,.52-.27.82-.82.82h-3.82c-.52,0-.82.27-.82.82v12.76c0,.52-.27.82-.82.82h-3.05c-.52,0-.82-.3-.82-.82v-12.76Z"/>
  <path class="cls-2" d="M162.56,222.35c.55,0,.82.27.82.82v3.05c0,.52-.27.82-.82.82h-6.87c-.52,0-.82.27-.82.82v.87c0,.52.3.82.82.82h4.5c.54,0,.82.27.82.82v3.05c0,.52-.27.82-.82.82h-4.5c-.52,0-.82.27-.82.82v5.56c0,.52-.27.82-.82.82h-3.22c-.52,0-.82-.3-.82-.82v-17.45c0-.54.3-.82.82-.82h11.72Z"/>
  <path class="cls-2" d="M179.38,239.97c.38.71-.05,1.47-.9,1.47h-3.11c-.27,0-.52-.14-.63-.38l-2.84-5.48c-.05-.08-.14-.14-.22-.14h-1.09c-.49,0-.85.35-.85.85v4.31c0,.49-.35.85-.84.85h-3.05c-.49,0-.85-.35-.85-.85v-17.4c0-.49.35-.84.85-.84h5.97c4.85,0,6.82,2.07,6.82,6.54,0,2.54-.63,4.31-2.07,5.34-.11.08-.14.22-.08.35l2.89,5.37ZM170.6,227.04c-.49,0-.85.35-.85.85v2.02c0,.49.35.85.85.85h1.39c1.31,0,1.96-.16,1.96-1.85s-.65-1.85-1.96-1.85h-1.39Z"/>
  <path class="cls-2" d="M184.99,222.35c.55,0,.82.27.82.82v17.45c0,.52-.27.82-.82.82h-3c-.52,0-.82-.3-.82-.82v-17.45c0-.54.3-.82.82-.82h3Z"/>
  <path class="cls-2" d="M200.81,222.35c.54,0,.82.27.82.82v3.05c0,.52-.27.82-.82.82h-6.6c-.52,0-.82.27-.82.82v.87c0,.52.3.82.82.82h4.23c.54,0,.82.27.82.82v3.05c0,.52-.27.82-.82.82h-4.23c-.52,0-.82.27-.82.82v.87c0,.52.3.82.82.82h6.6c.54,0,.82.27.82.82v3.05c0,.55-.27.82-.82.82h-11.45c-.52,0-.82-.3-.82-.82v-17.45c0-.54.3-.82.82-.82h11.45Z"/>
  <path class="cls-2" d="M208.55,222.35c.46,0,.76.19.96.63l3.71,9.08c.11.25.33.19.33-.08v-8.81c0-.54.3-.82.82-.82h3.05c.54,0,.82.27.82.82v17.45c0,.52-.27.82-.82.82h-4.01c-.46,0-.76-.19-.95-.63l-3.71-9.08c-.11-.25-.33-.19-.33.08v8.81c0,.52-.27.82-.82.82h-3.05c-.52,0-.82-.3-.82-.82v-17.45c0-.54.3-.82.82-.82h4.01Z"/>
  <path class="cls-2" d="M227.85,222.35c5.13,0,6.82,2.07,6.82,6.54v5.97c0,4.47-1.69,6.57-6.82,6.57h-6.08c-.52,0-.82-.3-.82-.82v-17.42c0-.54.27-.82.82-.84h6.08ZM227.93,236.75c1.31,0,1.96-.22,1.96-1.85v-6c0-1.69-.65-1.85-1.96-1.85h-1.47c-.52,0-.82.27-.82.82v8.07c0,.52.3.82.82.82h1.47Z"/>
  <path class="cls-2" d="M242.35,222.35c.55,0,.85.27.82.82l-.55,11.45c-.03.52-.27.82-.82.82h-3.05c-.52,0-.79-.3-.82-.82l-.55-11.45c-.03-.54.3-.82.82-.82h4.14ZM241.8,236.75c.54,0,.82.27.82.82v3.05c0,.52-.27.82-.82.82h-3.05c-.52,0-.82-.3-.82-.82v-3.05c0-.54.3-.82.82-.82h3.05Z"/>
</svg>